REM DIRINDEX 1\2,1\3,1\4,1\5
REM DIRNAME folder01,folder02,folder03,folder04,folder05
TITLE ""
FILE "CD2Track02.mp3" MP3
  TRACK 01 AUDIO
    TITLE "5:cjc156_1692"
    INDEX 01 00:00:00
  TRACK 02 AUDIO
    TITLE "0:"
    INDEX 01 00:01:26
  TRACK 03 AUDIO
    TITLE "2:cjc156_1693"
    INDEX 01 00:02:28
  TRACK 04 AUDIO
    TITLE "3:cjc156_1694"
    INDEX 01 00:04:29
  TRACK 05 AUDIO
    TITLE "2:cjc156_1695"
    INDEX 01 00:06:35
  TRACK 06 AUDIO
    TITLE "3:cjc156_1696"
    INDEX 01 00:08:09
  TRACK 07 AUDIO
    TITLE "2:cjc156_1697"
    INDEX 01 00:09:69
  TRACK 08 AUDIO
    TITLE "3:cjc156_1698"
    INDEX 01 00:11:15
  TRACK 09 AUDIO
    TITLE "2:cjc156_1699"
    INDEX 01 00:12:46
  TRACK 10 AUDIO
    TITLE "3:cjc156_1700"
    INDEX 01 00:14:45
  TRACK 11 AUDIO
    TITLE "2:cjc156_1701"
    INDEX 01 00:16:53
  TRACK 12 AUDIO
    TITLE "3:cjc156_1702"
    INDEX 01 00:18:13
  TRACK 13 AUDIO
    TITLE "2:cjc156_1703"
    INDEX 01 00:19:54
  TRACK 14 AUDIO
    TITLE "3:cjc156_1704"
    INDEX 01 00:20:59
  TRACK 15 AUDIO
    TITLE "2:cjc156_1705"
    INDEX 01 00:22:01
  TRACK 16 AUDIO
    TITLE "3:cjc156_1706"
    INDEX 01 00:24:00
  TRACK 17 AUDIO
    TITLE "2:cjc156_1707"
    INDEX 01 00:26:07
  TRACK 18 AUDIO
    TITLE "3:cjc156_1708"
    INDEX 01 00:27:34
  TRACK 19 AUDIO
    TITLE "2:cjc156_1709"
    INDEX 01 00:28:70
  TRACK 20 AUDIO
    TITLE "3:cjc156_1710"
    INDEX 01 00:31:10
  TRACK 21 AUDIO
    TITLE "2:cjc156_1711"
    INDEX 01 00:33:34
  TRACK 22 AUDIO
    TITLE "3:cjc156_1712"
    INDEX 01 00:36:19
  TRACK 23 AUDIO
    TITLE "2:cjc156_1713"
    INDEX 01 00:39:13
  TRACK 24 AUDIO
    TITLE "3:cjc156_1714"
    INDEX 01 00:40:52
  TRACK 25 AUDIO
    TITLE "2:cjc156_1715"
    INDEX 01 00:42:27
  TRACK 26 AUDIO
    TITLE "3:cjc156_1716"
    INDEX 01 00:44:56
  TRACK 27 AUDIO
    TITLE "2:cjc156_1717"
    INDEX 01 00:47:21
  TRACK 28 AUDIO
    TITLE "3:cjc156_1718"
    INDEX 01 00:49:49
  TRACK 29 AUDIO
    TITLE "2:cjc156_1719"
    INDEX 01 00:52:08
  TRACK 30 AUDIO
    TITLE "3:cjc156_1720"
    INDEX 01 00:54:40
  TRACK 31 AUDIO
    TITLE "2:cjc156_1721"
    INDEX 01 00:57:03
  TRACK 32 AUDIO
    TITLE "3:cjc156_1722"
    INDEX 01 01:00:12
  TRACK 33 AUDIO
    TITLE "2:cjc156_1723"
    INDEX 01 01:03:10
  TRACK 34 AUDIO
    TITLE "3:cjc156_1724"
    INDEX 01 01:05:30
  TRACK 35 AUDIO
    TITLE "2:cjc156_1725"
    INDEX 01 01:07:59
  TRACK 36 AUDIO
    TITLE "3:cjc156_1726"
    INDEX 01 01:10:14
  TRACK 37 AUDIO
    TITLE "2:cjc156_1727"
    INDEX 01 01:12:52
  TRACK 38 AUDIO
    TITLE "3:cjc156_1728"
    INDEX 01 01:15:01
  TRACK 39 AUDIO
    TITLE "2:cjc156_1729"
    INDEX 01 01:17:35
  TRACK 40 AUDIO
    TITLE "3:cjc156_1730"
    INDEX 01 01:19:74
  TRACK 41 AUDIO
    TITLE "2:cjc156_1731"
    INDEX 01 01:22:42
  TRACK 42 AUDIO
    TITLE "3:cjc156_1732"
    INDEX 01 01:24:10
  TRACK 43 AUDIO
    TITLE "2:cjc156_1733"
    INDEX 01 01:25:66
  TRACK 44 AUDIO
    TITLE "3:cjc156_1734"
    INDEX 01 01:27:73
  TRACK 45 AUDIO
    TITLE "2:cjc156_1735"
    INDEX 01 01:30:17
  TRACK 46 AUDIO
    TITLE "3:cjc156_1736"
    INDEX 01 01:32:25
  TRACK 47 AUDIO
    TITLE "2:cjc156_1737"
    INDEX 01 01:34:40
  TRACK 48 AUDIO
    TITLE "3:cjc156_1738"
    INDEX 01 01:36:11
  TRACK 49 AUDIO
    TITLE "2:cjc156_1739"
    INDEX 01 01:37:68
  TRACK 50 AUDIO
    TITLE "3:cjc156_1740"
    INDEX 01 01:39:68
  TRACK 51 AUDIO
    TITLE "2:cjc156_1741"
    INDEX 01 01:42:06
  TRACK 52 AUDIO
    TITLE "3:cjc156_1742"
    INDEX 01 01:44:42
  TRACK 53 AUDIO
    TITLE "2:cjc156_1743"
    INDEX 01 01:47:11
  TRACK 54 AUDIO
    TITLE "3:cjc156_1744"
    INDEX 01 01:48:42
  TRACK 55 AUDIO
    TITLE "2:cjc156_1745"
    INDEX 01 01:50:00
  TRACK 56 AUDIO
    TITLE "3:cjc156_1746"
    INDEX 01 01:51:27
  TRACK 57 AUDIO
    TITLE "2:cjc156_1747"
    INDEX 01 01:52:69
  TRACK 58 AUDIO
    TITLE "3:cjc156_1748"
    INDEX 01 01:54:54
  TRACK 59 AUDIO
    TITLE "2:cjc156_1749"
    INDEX 01 01:56:45
  TRACK 60 AUDIO
    TITLE "3:cjc156_1750"
    INDEX 01 01:57:60
  TRACK 61 AUDIO
    TITLE "2:cjc156_1751"
    INDEX 01 01:59:10
  TRACK 62 AUDIO
    TITLE "3:cjc156_1752"
    INDEX 01 02:00:43
  TRACK 63 AUDIO
    TITLE "2:cjc156_1753"
    INDEX 01 02:02:01
  TRACK 64 AUDIO
    TITLE "3:cjc156_1754"
    INDEX 01 02:04:27
  TRACK 65 AUDIO
    TITLE "2:cjc156_1755"
    INDEX 01 02:06:69
  TRACK 66 AUDIO
    TITLE "3:cjc156_1756"
    INDEX 01 02:09:30
  TRACK 67 AUDIO
    TITLE "2:cjc156_1757"
    INDEX 01 02:12:03
  TRACK 68 AUDIO
    TITLE "3:cjc156_1758"
    INDEX 01 02:14:33
  TRACK 69 AUDIO
    TITLE "2:cjc156_1759"
    INDEX 01 02:17:02
  TRACK 70 AUDIO
    TITLE "3:cjc156_1760"
    INDEX 01 02:18:33
  TRACK 71 AUDIO
    TITLE "2:cjc156_1761"
    INDEX 01 02:20:01
  TRACK 72 AUDIO
    TITLE "3:cjc156_1762"
    INDEX 01 02:22:25
  TRACK 73 AUDIO
    TITLE "2:cjc156_1763"
    INDEX 01 02:24:61
  TRACK 74 AUDIO
    TITLE "3:cjc156_1764"
    INDEX 01 02:26:27
  TRACK 75 AUDIO
    TITLE "2:cjc156_1765"
    INDEX 01 02:28:02
  TRACK 76 AUDIO
    TITLE "3:cjc156_1766"
    INDEX 01 02:29:33
  TRACK 77 AUDIO
    TITLE "2:cjc156_1767"
    INDEX 01 02:31:03
  TRACK 78 AUDIO
    TITLE "3:cjc156_1768"
    INDEX 01 02:33:35
  TRACK 79 AUDIO
    TITLE "2:cjc156_1769"
    INDEX 01 02:36:02
  TRACK 80 AUDIO
    TITLE "3:cjc156_1770"
    INDEX 01 02:37:38
  TRACK 81 AUDIO
    TITLE "2:cjc156_1771"
    INDEX 01 02:39:08
  TRACK 82 AUDIO
    TITLE "3:cjc156_1772"
    INDEX 01 02:42:14
  TRACK 83 AUDIO
    TITLE "2:cjc156_1773"
    INDEX 01 02:45:28
  TRACK 84 AUDIO
    TITLE "3:cjc156_1774"
    INDEX 01 02:48:46
  TRACK 85 AUDIO
    TITLE "2:cjc156_1775"
    INDEX 01 02:51:74
  TRACK 86 AUDIO
    TITLE "3:cjc156_1776"
    INDEX 01 02:53:12
  TRACK 87 AUDIO
    TITLE "2:cjc156_1777"
    INDEX 01 02:54:31
  TRACK 88 AUDIO
    TITLE "3:cjc156_1778"
    INDEX 01 02:57:18
  TRACK 89 AUDIO
    TITLE "2:cjc156_1779"
    INDEX 01 03:00:08
  TRACK 90 AUDIO
    TITLE "3:cjc156_1780"
    INDEX 01 03:01:35
  TRACK 91 AUDIO
    TITLE "2:cjc156_1781"
    INDEX 01 03:02:62
  TRACK 92 AUDIO
    TITLE "3:cjc156_1782"
    INDEX 01 03:06:11
  TRACK 93 AUDIO
    TITLE "2:cjc156_1783"
    INDEX 01 03:09:42
  TRACK 94 AUDIO
    TITLE "3:cjc156_1784"
    INDEX 01 03:12:05
  TRACK 95 AUDIO
    TITLE "2:cjc156_1785"
    INDEX 01 03:14:71
  TRACK 96 AUDIO
    TITLE "3:cjc156_1786"
    INDEX 01 03:16:03
  TRACK 97 AUDIO
    TITLE "2:cjc156_1787"
    INDEX 01 03:17:14
  TRACK 98 AUDIO
    TITLE "3:cjc156_1788"
    INDEX 01 03:18:63
  TRACK 99 AUDIO
    TITLE "2:cjc156_1789"
    INDEX 01 03:20:40
  TRACK 100 AUDIO
    TITLE "3:cjc156_1790"
    INDEX 01 03:22:35
  TRACK 101 AUDIO
    TITLE "2:cjc156_1791"
    INDEX 01 03:24:42
  TRACK 102 AUDIO
    TITLE "3:cjc156_1792"
    INDEX 01 03:26:02
  TRACK 103 AUDIO
    TITLE "2:cjc156_1793"
    INDEX 01 03:27:44
  TRACK 104 AUDIO
    TITLE "3:cjc156_1794"
    INDEX 01 03:29:21
  TRACK 105 AUDIO
    TITLE "2:cjc156_1795"
    INDEX 01 03:31:13
  TRACK 106 AUDIO
    TITLE "3:cjc156_1796"
    INDEX 01 03:33:08
  TRACK 107 AUDIO
    TITLE "2:cjc156_1797"
    INDEX 01 03:35:08
  TRACK 108 AUDIO
    TITLE "3:cjc156_1798"
    INDEX 01 03:36:53
  TRACK 109 AUDIO
    TITLE "2:cjc156_1799"
    INDEX 01 03:38:30
  TRACK 110 AUDIO
    TITLE "3:cjc156_1800"
    INDEX 01 03:41:23
  TRACK 111 AUDIO
    TITLE "2:cjc156_1801"
    INDEX 01 03:44:29
  TRACK 112 AUDIO
    TITLE "3:cjc156_1802"
    INDEX 01 03:46:26
  TRACK 113 AUDIO
    TITLE "2:cjc156_1803"
    INDEX 01 03:48:35
  TRACK 114 AUDIO
    TITLE "3:cjc156_1804"
    INDEX 01 03:50:22
  TRACK 115 AUDIO
    TITLE "2:cjc156_1805"
    INDEX 01 03:52:21
  TRACK 116 AUDIO
    TITLE "3:cjc156_1806"
    INDEX 01 03:54:25
  TRACK 117 AUDIO
    TITLE "2:cjc156_1807"
    INDEX 01 03:56:42
  TRACK 118 AUDIO
    TITLE "3:cjc156_1808"
    INDEX 01 03:57:67
  TRACK 119 AUDIO
    TITLE "2:cjc156_1809"
    INDEX 01 03:59:27
  TRACK 120 AUDIO
    TITLE "3:cjc156_1810"
    INDEX 01 04:00:30
  TRACK 121 AUDIO
    TITLE "2:cjc156_1811"
    INDEX 01 04:01:43
  TRACK 122 AUDIO
    TITLE "3:cjc156_1812"
    INDEX 01 04:03:09
  TRACK 123 AUDIO
    TITLE "2:cjc156_1813"
    INDEX 01 04:04:53
  TRACK 124 AUDIO
    TITLE "3:cjc156_1814"
    INDEX 01 04:06:17
  TRACK 125 AUDIO
    TITLE "2:cjc156_1815"
    INDEX 01 04:07:61
  TRACK 126 AUDIO
    TITLE "3:cjc156_1816"
    INDEX 01 04:09:27
  TRACK 127 AUDIO
    TITLE "2:cjc156_1817"
    INDEX 01 04:11:04
  TRACK 128 AUDIO
    TITLE "3:cjc156_1818"
    INDEX 01 04:12:35
  TRACK 129 AUDIO
    TITLE "2:cjc156_1819"
    INDEX 01 04:14:08
  TRACK 130 AUDIO
    TITLE "3:cjc156_1820"
    INDEX 01 04:16:19
  TRACK 131 AUDIO
    TITLE "2:cjc156_1821"
    INDEX 01 04:18:42
  TRACK 132 AUDIO
    TITLE "3:cjc156_1822"
    INDEX 01 04:19:57
  TRACK 133 AUDIO
    TITLE "2:cjc156_1823"
    INDEX 01 04:21:07
  TRACK 134 AUDIO
    TITLE "3:cjc156_1824"
    INDEX 01 04:24:03
  TRACK 135 AUDIO
    TITLE "2:cjc156_1825"
    INDEX 01 04:27:11
  TRACK 136 AUDIO
    TITLE "3:cjc156_1826"
    INDEX 01 04:28:34
  TRACK 137 AUDIO
    TITLE "2:cjc156_1827"
    INDEX 01 04:29:63
  TRACK 138 AUDIO
    TITLE "3:cjc156_1828"
    INDEX 01 04:31:74
  TRACK 139 AUDIO
    TITLE "2:cjc156_1829"
    INDEX 01 04:34:23
  TRACK 140 AUDIO
    TITLE "3:cjc156_1830"
    INDEX 01 04:36:20
  TRACK 141 AUDIO
    TITLE "2:cjc156_1831"
    INDEX 01 04:38:29
  TRACK 142 AUDIO
    TITLE "3:cjc156_1832"
    INDEX 01 04:40:18
  TRACK 143 AUDIO
    TITLE "2:cjc156_1833"
    INDEX 01 04:42:11
  TRACK 144 AUDIO
    TITLE "3:cjc156_1834"
    INDEX 01 04:43:69
  TRACK 145 AUDIO
    TITLE "2:cjc156_1835"
    INDEX 01 04:45:64
  TRACK 146 AUDIO
    TITLE "3:cjc156_1836"
    INDEX 01 04:46:71
  TRACK 147 AUDIO
    TITLE "2:cjc156_1837"
    INDEX 01 04:48:13
  TRACK 148 AUDIO
    TITLE "3:cjc156_1838"
    INDEX 01 04:50:28
  TRACK 149 AUDIO
    TITLE "2:cjc156_1839"
    INDEX 01 04:52:54
  TRACK 150 AUDIO
    TITLE "3:cjc156_1840"
    INDEX 01 04:54:45
  TRACK 151 AUDIO
    TITLE "2:cjc156_1841"
    INDEX 01 04:56:46
  TRACK 152 AUDIO
    TITLE "3:cjc156_1842"
    INDEX 01 04:58:55
  TRACK 153 AUDIO
    TITLE "2:cjc156_1843"
    INDEX 01 05:00:71
  TRACK 154 AUDIO
    TITLE "3:cjc156_1844"
    INDEX 01 05:02:21
  TRACK 155 AUDIO
    TITLE "2:cjc156_1845"
    INDEX 01 05:03:62
  TRACK 156 AUDIO
    TITLE "3:cjc156_1846"
    INDEX 01 05:05:33
  TRACK 157 AUDIO
    TITLE "2:cjc156_1847"
    INDEX 01 05:07:18
  TRACK 158 AUDIO
    TITLE "3:cjc156_1848"
    INDEX 01 05:09:27
  TRACK 159 AUDIO
    TITLE "2:cjc156_1849"
    INDEX 01 05:11:46
  TRACK 160 AUDIO
    TITLE "3:cjc156_1850"
    INDEX 01 05:13:39
  TRACK 161 AUDIO
    TITLE "2:cjc156_1851"
    INDEX 01 05:15:36
  TRACK 162 AUDIO
    TITLE "3:cjc156_1852"
    INDEX 01 05:17:48
  TRACK 163 AUDIO
    TITLE "2:cjc156_1853"
    INDEX 01 05:20:00
  TRACK 164 AUDIO
    TITLE "3:cjc156_1854"
    INDEX 01 05:22:22
  TRACK 165 AUDIO
    TITLE "2:cjc156_1855"
    INDEX 01 05:24:56
  TRACK 166 AUDIO
    TITLE "3:cjc156_1856"
    INDEX 01 05:26:18
  TRACK 167 AUDIO
    TITLE "2:cjc156_1857"
    INDEX 01 05:27:62
  TRACK 168 AUDIO
    TITLE "3:cjc156_1858"
    INDEX 01 05:29:59
  TRACK 169 AUDIO
    TITLE "2:cjc156_1859"
    INDEX 01 05:31:60
  TRACK 170 AUDIO
    TITLE "3:cjc156_1860"
    INDEX 01 05:33:43
  TRACK 171 AUDIO
    TITLE "2:cjc156_1861"
    INDEX 01 05:35:36
  TRACK 172 AUDIO
    TITLE "3:cjc156_1862"
    INDEX 01 05:37:67
  TRACK 173 AUDIO
    TITLE "2:cjc156_1863"
    INDEX 01 05:40:28
  TRACK 174 AUDIO
    TITLE "3:cjc156_1864"
    INDEX 01 05:42:42
  TRACK 175 AUDIO
    TITLE "2:cjc156_1865"
    INDEX 01 05:44:72
  TRACK 176 AUDIO
    TITLE "3:cjc156_1866"
    INDEX 01 05:48:31
  TRACK 177 AUDIO
    TITLE "2:cjc156_1867"
    INDEX 01 05:52:00
  TRACK 178 AUDIO
    TITLE "3:cjc156_1868"
    INDEX 01 05:53:44
  TRACK 179 AUDIO
    TITLE "2:cjc156_1869"
    INDEX 01 05:55:21
  TRACK 180 AUDIO
    TITLE "3:cjc156_1870"
    INDEX 01 05:56:66
  TRACK 181 AUDIO
    TITLE "2:cjc156_1871"
    INDEX 01 05:58:47
  TRACK 182 AUDIO
    TITLE "3:cjc156_1872"
    INDEX 01 06:00:46
  TRACK 183 AUDIO
    TITLE "2:cjc156_1873"
    INDEX 01 06:02:57
  TRACK 184 AUDIO
    TITLE "3:cjc156_1874"
    INDEX 01 06:04:14
  TRACK 185 AUDIO
    TITLE "2:cjc156_1875"
    INDEX 01 06:05:61
  TRACK 186 AUDIO
    TITLE "3:cjc156_1876"
    INDEX 01 06:08:18
  TRACK 187 AUDIO
    TITLE "2:cjc156_1877"
    INDEX 01 06:10:64
  TRACK 188 AUDIO
    TITLE "3:cjc156_1878"
    INDEX 01 06:12:30
  TRACK 189 AUDIO
    TITLE "2:cjc156_1879"
    INDEX 01 06:14:01
  TRACK 190 AUDIO
    TITLE "3:cjc156_1880"
    INDEX 01 06:15:26
  TRACK 191 AUDIO
    TITLE "2:cjc156_1881"
    INDEX 01 06:16:57
  TRACK 192 AUDIO
    TITLE "3:cjc156_1882"
    INDEX 01 06:18:64
  TRACK 193 AUDIO
    TITLE "2:cjc156_1883"
    INDEX 01 06:20:72
  TRACK 194 AUDIO
    TITLE "3:cjc156_1884"
    INDEX 01 06:23:02
  TRACK 195 AUDIO
    TITLE "2:cjc156_1885"
    INDEX 01 06:25:17
  TRACK 196 AUDIO
    TITLE "3:cjc156_1886"
    INDEX 01 06:27:31
  TRACK 197 AUDIO
    TITLE "2:cjc156_1887"
    INDEX 01 06:29:57
  TRACK 198 AUDIO
    TITLE "3:cjc156_1888"
    INDEX 01 06:31:21
  TRACK 199 AUDIO
    TITLE "2:cjc156_1889"
    INDEX 01 06:32:70
  TRACK 200 AUDIO
    TITLE "3:cjc156_1890"
    INDEX 01 06:35:23
  TRACK 201 AUDIO
    TITLE "2:cjc156_1891"
    INDEX 01 06:37:59
  TRACK 202 AUDIO
    TITLE "3:cjc156_1892"
    INDEX 01 06:39:21
  TRACK 203 AUDIO
    TITLE "2:cjc156_1893"
    INDEX 01 06:40:65
  TRACK 204 AUDIO
    TITLE "3:cjc156_1894"
    INDEX 01 06:42:13
  TRACK 205 AUDIO
    TITLE "2:cjc156_1895"
    INDEX 01 06:43:54
  TRACK 206 AUDIO
    TITLE "3:cjc156_1896"
    INDEX 01 06:46:01
  TRACK 207 AUDIO
    TITLE "2:cjc156_1897"
    INDEX 01 06:48:35
  TRACK 208 AUDIO
    TITLE "3:cjc156_1898"
    INDEX 01 06:49:27
  TRACK 209 AUDIO
    TITLE "2:cjc156_1899"
    INDEX 01 06:50:28
  TRACK 210 AUDIO
    TITLE "3:cjc156_1900"
    INDEX 01 06:51:63
  TRACK 211 AUDIO
    TITLE "2:cjc156_1901"
    INDEX 01 06:53:34
  TRACK 212 AUDIO
    TITLE "3:cjc156_1902"
    INDEX 01 06:56:05
  TRACK 213 AUDIO
    TITLE "2:cjc156_1903"
    INDEX 01 06:58:57
  TRACK 214 AUDIO
    TITLE "3:cjc156_1904"
    INDEX 01 07:00:48
  TRACK 215 AUDIO
    TITLE "2:cjc156_1905"
    INDEX 01 07:02:53
  TRACK 216 AUDIO
    TITLE "3:cjc156_1906"
    INDEX 01 07:04:26
  TRACK 217 AUDIO
    TITLE "2:cjc156_1907"
    INDEX 01 07:06:12
  TRACK 218 AUDIO
    TITLE "3:cjc156_1908"
    INDEX 01 07:08:38
  TRACK 219 AUDIO
    TITLE "2:cjc156_1909"
    INDEX 01 07:11:03
  TRACK 220 AUDIO
    TITLE "3:cjc156_1910"
    INDEX 01 07:12:04
  TRACK 221 AUDIO
    TITLE "2:cjc156_1911"
    INDEX 01 07:13:18
  TRACK 222 AUDIO
    TITLE "3:cjc156_1912"
    INDEX 01 07:15:15
  TRACK 223 AUDIO
    TITLE "2:cjc156_1913"
    INDEX 01 07:17:23
  TRACK 224 AUDIO
    TITLE "3:cjc156_1914"
    INDEX 01 07:19:51
  TRACK 225 AUDIO
    TITLE "2:cjc156_1915"
    INDEX 01 07:22:20
  TRACK 226 AUDIO
    TITLE "3:cjc156_1916"
    INDEX 01 07:24:21
  TRACK 227 AUDIO
    TITLE "2:cjc156_1917"
    INDEX 01 07:26:34
  TRACK 228 AUDIO
    TITLE "3:cjc156_1918"
    INDEX 01 07:28:64
  TRACK 229 AUDIO
    TITLE "2:cjc156_1919"
    INDEX 01 07:31:27
  TRACK 230 AUDIO
    TITLE "3:cjc156_1920"
    INDEX 01 07:32:38
  TRACK 231 AUDIO
    TITLE "2:cjc156_1921"
    INDEX 01 07:33:57
  TRACK 232 AUDIO
    TITLE "3:cjc156_1922"
    INDEX 01 07:36:23
  TRACK 233 AUDIO
    TITLE "2:cjc156_1923"
    INDEX 01 07:38:70
  TRACK 234 AUDIO
    TITLE "3:cjc156_1924"
    INDEX 01 07:40:60
  TRACK 235 AUDIO
    TITLE "2:cjc156_1925"
    INDEX 01 07:42:53
  TRACK 236 AUDIO
    TITLE "3:cjc156_1926"
    INDEX 01 07:44:51
  TRACK 237 AUDIO
    TITLE "2:cjc156_1927"
    INDEX 01 07:46:56
  TRACK 238 AUDIO
    TITLE "3:cjc156_1928"
    INDEX 01 07:48:14
  TRACK 239 AUDIO
    TITLE "2:cjc156_1929"
    INDEX 01 07:49:58
  TRACK 240 AUDIO
    TITLE "3:cjc156_1930"
    INDEX 01 07:51:10
  TRACK 241 AUDIO
    TITLE "2:cjc156_1931"
    INDEX 01 07:52:43
  TRACK 242 AUDIO
    TITLE "3:cjc156_1932"
    INDEX 01 07:54:50
  TRACK 243 AUDIO
    TITLE "2:cjc156_1933"
    INDEX 01 07:56:64
  TRACK 244 AUDIO
    TITLE "3:cjc156_1934"
    INDEX 01 07:59:04
  TRACK 245 AUDIO
    TITLE "2:cjc156_1935"
    INDEX 01 08:01:26
  TRACK 246 AUDIO
    TITLE "3:cjc156_1936"
    INDEX 01 08:03:43
  TRACK 247 AUDIO
    TITLE "2:cjc156_1937"
    INDEX 01 08:05:67
  TRACK 248 AUDIO
    TITLE "3:cjc156_1938"
    INDEX 01 08:07:17
  TRACK 249 AUDIO
    TITLE "2:cjc156_1939"
    INDEX 01 08:08:52
  TRACK 250 AUDIO
    TITLE "3:cjc156_1940"
    INDEX 01 08:11:03
  TRACK 251 AUDIO
    TITLE "0:"
    INDEX 01 08:13:61
